# xmcd CD database file
#
# Track frame offsets:
#	150
#	22537
#	45600
#	62862
#	87112
#	111902
#	134100
#	153517
#	180862
#	202637
#
# Disc length: 3086 seconds
#
# Revision: 7
# Processed by: cddbd v1.5.2PL0 Copyright (c) Steve Scherf et al.
# Submitted via: CDex 1.60beta1-cs1
#
DISCID=750c0c0a
DTITLE=西脇唯 - 恋していた時間が忘れるための時間
DYEAR=1995
DGENRE=JPop
TTITLE0=どうしても好きだった
TTITLE1=いつかもう一度愛せるから
TTITLE2=休日
TTITLE3=遠い5月の真昼の海
TTITLE4=それはひとつしかなくて
TTITLE5=思い出が降る街で
TTITLE6=RESET
TTITLE7=夕凪
TTITLE8=思いをはせることだけは自由
TTITLE9=愛することは やめない
EXTD=YEAR: 1995
EXTT0=
EXTT1=
EXTT2=
EXTT3=
EXTT4=
EXTT5=
EXTT6=
EXTT7=
EXTT8=
EXTT9=
PLAYORDER=
